HIERARCHY
ROOT Hips
{
	OFFSET 0.00000 0.00000 0.00000
	CHANNELS 6 Xposition Yposition Zposition Zrotation Yrotation Xrotation 
	JOINT LHipJoint
	{
		OFFSET 0 0 0
		CHANNELS 3 Zrotation Yrotation Xrotation
		JOINT LeftUpLeg
		{
			OFFSET 1.59801 -1.77853 0.57028
			CHANNELS 3 Zrotation Yrotation Xrotation
			JOINT LeftLeg
			{
				OFFSET 2.39439 -6.57854 0.00000
				CHANNELS 3 Zrotation Yrotation Xrotation
				JOINT LeftFoot
				{
					OFFSET 2.69334 -7.39989 0.00000
					CHANNELS 3 Zrotation Yrotation Xrotation
					JOINT LeftToeBase
					{
						OFFSET 0.09553 -0.26245 1.73747
						CHANNELS 3 Zrotation Yrotation Xrotation
						End Site
						{
							OFFSET 0.00000 -0.00000 0.89391
						}
					}
				}
			}
		}
	}
	JOINT RHipJoint
	{
		OFFSET 0 0 0
		CHANNELS 3 Zrotation Yrotation Xrotation
		JOINT RightUpLeg
		{
			OFFSET -1.54704 -1.77852 0.57028
			CHANNELS 3 Zrotation Yrotation Xrotation
			JOINT RightLeg
			{
				OFFSET -2.40286 -6.60180 0.00000
				CHANNELS 3 Zrotation Yrotation Xrotation
				JOINT RightFoot
				{
					OFFSET -2.63873 -7.24984 0.00000
					CHANNELS 3 Zrotation Yrotation Xrotation
					JOINT RightToeBase
					{
						OFFSET -0.15631 -0.42945 1.84436
						CHANNELS 3 Zrotation Yrotation Xrotation
						End Site
						{
							OFFSET -0.00000 -0.00000 0.95734
						}
					}
				}
			}
		}
	}
	JOINT LowerBack
	{
		OFFSET 0 0 0
		CHANNELS 3 Zrotation Yrotation Xrotation
		JOINT Spine
		{
			OFFSET -0.00436 1.89866 -0.04018
			CHANNELS 3 Zrotation Yrotation Xrotation
			JOINT Spine1
			{
				OFFSET 0.02031 1.88273 0.09634
				CHANNELS 3 Zrotation Yrotation Xrotation
				JOINT Neck
				{
					OFFSET 0 0 0
					CHANNELS 3 Zrotation Yrotation Xrotation
					JOINT Neck1
					{
						OFFSET -0.13105 1.89371 0.23083
						CHANNELS 3 Zrotation Yrotation Xrotation
						JOINT Head
						{
							OFFSET 0.17062 1.83990 -0.54062
							CHANNELS 3 Zrotation Yrotation Xrotation
							End Site
							{
								OFFSET 0.04576 1.94782 -0.21839
							}
						}
					}
				}
				JOINT LeftShoulder
				{
					OFFSET 0 0 0
					CHANNELS 3 Zrotation Yrotation Xrotation
					JOINT LeftArm
					{
						OFFSET 3.12424 1.09204 0.22226
						CHANNELS 3 Zrotation Yrotation Xrotation
						JOINT LeftForeArm
						{
							OFFSET 5.29277 -0.00000 0.00000
							CHANNELS 3 Zrotation Yrotation Xrotation
							JOINT LeftHand
							{
								OFFSET 2.85226 -0.00000 0.00000
								CHANNELS 3 Zrotation Yrotation Xrotation
								JOINT LeftFingerBase
								{
									OFFSET 0 0 0
									CHANNELS 3 Zrotation Yrotation Xrotation
									JOINT LeftHandIndex1
									{
										OFFSET 0.60210 -0.00000 0.00000
										CHANNELS 3 Zrotation Yrotation Xrotation
										End Site
										{
											OFFSET 0.48543 -0.00000 0.00000
										}
									}
								}
								JOINT LThumb
								{
									OFFSET 0 0 0
									CHANNELS 3 Zrotation Yrotation Xrotation
									End Site
									{
										OFFSET 0.49284 -0.00000 0.49284
									}
								}
							}
						}
					}
				}
				JOINT RightShoulder
				{
					OFFSET 0 0 0
					CHANNELS 3 Zrotation Yrotation Xrotation
					JOINT RightArm
					{
						OFFSET -2.91709 1.01504 0.30199
						CHANNELS 3 Zrotation Yrotation Xrotation
						JOINT RightForeArm
						{
							OFFSET -5.13304 -0.00000 0.00000
							CHANNELS 3 Zrotation Yrotation Xrotation
							JOINT RightHand
							{
								OFFSET -2.74305 -0.00000 0.00000
								CHANNELS 3 Zrotation Yrotation Xrotation
								JOINT RightFingerBase
								{
									OFFSET 0 0 0
									CHANNELS 3 Zrotation Yrotation Xrotation
									JOINT RightHandIndex1
									{
										OFFSET -0.76798 -0.00000 0.00000
										CHANNELS 3 Zrotation Yrotation Xrotation
										End Site
										{
											OFFSET -0.61916 -0.00000 0.00000
										}
									}
								}
								JOINT RThumb
								{
									OFFSET 0 0 0
									CHANNELS 3 Zrotation Yrotation Xrotation
									End Site
									{
										OFFSET -0.62862 -0.00000 0.62862
									}
								}
							}
						}
					}
				}
			}
		}
	}
}
MOTION
Frames: 14
Frame Time: .0083333
0.2497 17.4922 -0.0632 0 0 0 0 0 0 -21 0 0 0 0 0 0 0 0 0 0 0 0 0 0 21 0 0 0 0 0 0 0 0 0 0 0 0 0 0 0 0 0 0 0 0 0 0 -16 0 0 21 0 0 11 0 0 0 -8 0 0 0 0 0 0 0 0 0 0 0 0 0 0 0 0 0 0 0 0 8 0 0 0 0 0 0 0 0 0 0 0 0 0 0 0 0 0
0.2497 17.4922 -0.0632 -0.9717 2.8625 7.5051 0.0000 0.0000 0.0000 -17.7657 -23.8238 -0.0166 0.5894 4.9155 13.6677 0.1773 11.5001 -18.6439 0.8151 -5.7611 -16.0929 0.0000 0.0000 0.0000 0.0000 0.0000 0.0000 0.0000 0.0000 0.0000 -0.0000 -0.0000 0.0000 -0.0000 -0.0000 0.0000 0.3555 -0.7267 -0.7853 0.8168 -0.9482 -3.1155 0.6545 -0.4711 -2.7474 -18.6235 -15.5022 -13.5465 22.1510 -23.4535 18.9984 7.0225 -9.9784 13.9045 -0.0000 0.0000 0.0000 -84.8409 9.3434 -3.9478 1.9829 -3.4297 -0.0594 -0.0000 -0.0000 29.8347 14.6525 29.2514 7.2807 -7.1250 0.0000 -0.0000 -18.5032 59.0786 -6.5043 -0.0000 0.0000 0.0000 84.0682 -17.7156 -26.3974 -3.8879 6.6982 -0.2276 0.0000 0.0000 52.7471 -9.4363 1.7764 -0.2952 7.1250 -0.0000 -0.0000 13.1819 -28.0839 5.5605
0.2510 17.4926 -0.0616 -0.9824 2.7849 7.4863 0.0000 0.0000 0.0000 -17.8021 -23.7331 0.0200 0.5888 4.9130 13.6605 0.1828 11.4572 -18.6562 0.7985 -5.7034 -15.9262 0.0000 0.0000 0.0000 0.0000 0.0000 0.0000 0.0000 0.0000 0.0000 -0.0000 -0.0000 0.0000 -0.0000 -0.0000 0.0000 0.3652 -0.7437 -0.7369 0.8134 -0.9704 -3.1212 0.6467 -0.4825 -2.7806 -18.7110 -15.5379 -13.4394 22.0586 -23.5141 19.1498 6.9949 -10.0222 13.9551 0.0000 -0.0000 0.0000 -84.9025 9.3974 -4.0824 1.9469 -3.3675 -0.0572 -0.0000 -0.0000 29.6514 15.2441 29.7364 7.6982 -7.1250 0.0000 -0.0000 -18.2226 59.6736 -6.6625 0.0000 -0.0000 0.0000 84.0531 -18.0357 -26.2623 -4.1590 7.1598 -0.2603 0.0000 0.0000 52.0004 -9.1462 2.3704 -0.3815 7.1250 -0.0000 -0.0000 13.3312 -27.4964 5.8172
0.2511 17.4926 -0.0578 -1.0000 2.6906 7.4540 0.0000 0.0000 0.0000 -17.8279 -23.6088 0.0971 0.5839 4.8927 13.6029 0.1911 11.4519 -18.7468 0.7721 -5.6108 -15.6592 0.0000 0.0000 0.0000 0.0000 0.0000 0.0000 0.0000 0.0000 0.0000 -0.0000 -0.0000 0.0000 -0.0000 -0.0000 0.0000 0.3223 -0.7712 -0.7511 0.8272 -1.0078 -3.0875 0.6850 -0.5000 -2.7364 -18.6935 -15.5471 -13.3093 21.9199 -23.5357 19.2606 6.9422 -10.0489 13.9496 0.0000 -0.0000 0.0000 -84.9750 9.2615 -4.2723 1.8099 -3.1313 -0.0495 -0.0000 -0.0000 29.4628 15.5383 30.1893 7.9593 -7.1250 0.0000 -0.0000 -18.2394 60.1716 -6.8867 0.0000 -0.0000 0.0000 84.0205 -18.2576 -26.0846 -4.4169 7.5978 -0.2934 0.0000 0.0000 51.3620 -8.9483 2.8918 -0.4551 7.1250 -0.0000 -0.0000 13.4200 -26.9822 6.0255
0.2501 17.4923 -0.0539 -0.9373 2.5779 7.4057 0.0000 0.0000 0.0000 -17.9447 -23.4785 0.1713 0.5824 4.8864 13.5849 0.1864 11.5456 -18.8069 0.8280 -5.8056 -16.2213 0.0000 0.0000 0.0000 0.0000 0.0000 0.0000 0.0000 0.0000 0.0000 -0.0000 -0.0000 0.0000 -0.0000 -0.0000 0.0000 0.1573 -0.8154 -0.7440 0.8274 -1.0685 -3.0536 0.7782 -0.5264 -2.7019 -18.7217 -15.5606 -13.1428 21.8486 -23.5740 19.3381 6.9204 -10.0846 13.9470 -0.0000 0.0000 0.0000 -85.0575 9.0823 -4.5178 1.6693 -2.8885 -0.0421 -0.0000 -0.0000 29.2129 15.8360 30.6421 8.2262 -7.1250 0.0000 -0.0000 -18.2597 60.6713 -7.1129 -0.0000 0.0000 0.0000 83.9681 -18.4384 -25.8485 -4.6679 8.0233 -0.3275 0.0000 0.0000 50.7986 -8.8235 3.5809 -0.5555 7.1250 -0.0000 -0.0000 13.4365 -26.3038 6.2538
0.2498 17.4911 -0.0519 -0.8990 2.4744 7.3743 0.0000 0.0000 0.0000 -18.0394 -23.3625 0.2239 0.5819 4.8844 13.5790 0.1813 11.5944 -18.8067 0.8634 -5.9250 -16.5670 0.0000 0.0000 0.0000 0.0000 0.0000 0.0000 0.0000 0.0000 0.0000 -0.0000 -0.0000 0.0000 -0.0000 -0.0000 0.0000 0.0798 -0.8398 -0.6717 0.8040 -1.1018 -3.0884 0.7998 -0.5412 -2.7770 -18.8105 -15.5731 -12.9356 21.8637 -23.6394 19.4351 6.9401 -10.1318 13.9773 -0.0000 0.0000 0.0000 -85.1183 9.0132 -4.6938 1.5691 -2.7154 -0.0372 -0.0000 -0.0000 28.9310 16.0781 30.8762 8.4137 -7.1250 0.0000 -0.0000 -18.1775 60.9514 -7.2010 -0.0000 0.0000 0.0000 84.0007 -18.7145 -25.6786 -4.9634 8.5226 -0.3701 0.0000 0.0000 50.3993 -8.7341 4.3261 -0.6640 7.1250 -0.0000 -0.0000 13.4236 -25.5709 6.4845
0.2482 17.4902 -0.0508 -0.9688 2.3398 7.3633 0.0000 0.0000 0.0000 -17.9884 -23.2147 0.2174 0.5831 4.8893 13.5930 0.1892 11.5560 -18.8517 0.8578 -5.9063 -16.5128 0.0000 0.0000 0.0000 0.0000 0.0000 0.0000 0.0000 0.0000 0.0000 -0.0000 -0.0000 0.0000 -0.0000 -0.0000 0.0000 0.0884 -0.8444 -0.6528 0.8294 -1.1071 -3.1047 0.8217 -0.5436 -2.8042 -18.9568 -15.5834 -12.7753 21.8801 -23.6827 19.5401 6.9727 -10.1695 14.0240 -0.0000 -0.0000 0.0000 -85.2412 8.9018 -4.8640 1.5041 -2.6031 -0.0342 -0.0000 -0.0000 28.5446 16.1601 31.0857 8.5092 -7.1250 0.0000 -0.0000 -18.2513 61.1696 -7.3262 -0.0000 -0.0000 0.0000 84.0072 -18.8227 -25.5272 -5.2300 8.9720 -0.4106 0.0000 0.0000 50.0742 -8.6017 4.9122 -0.7421 7.1250 -0.0000 -0.0000 13.4615 -24.9954 6.6898
0.2480 17.4895 -0.0463 -1.0264 2.2035 7.3249 0.0000 0.0000 0.0000 -17.9577 -23.0564 0.2431 0.5843 4.8945 13.6078 0.2062 11.4677 -18.9410 0.8198 -5.7774 -16.1399 0.0000 0.0000 0.0000 0.0000 0.0000 0.0000 0.0000 0.0000 0.0000 -0.0000 -0.0000 0.0000 -0.0000 -0.0000 0.0000 0.1051 -0.8383 -0.6726 0.8343 -1.0989 -3.1007 0.8168 -0.5399 -2.7893 -19.0281 -15.6007 -12.7050 21.7918 -23.7331 19.7596 6.9489 -10.2028 14.1078 0.0000 -0.0000 0.0000 -85.3809 8.7996 -5.0053 1.5189 -2.6287 -0.0349 -0.0000 -0.0000 28.1370 16.1079 31.3742 8.5503 -7.1250 0.0000 -0.0000 -18.5360 61.4293 -7.5594 0.0000 -0.0000 0.0000 83.9938 -18.7755 -25.3952 -5.4096 9.2740 -0.4391 0.0000 0.0000 49.8520 -8.5890 5.4169 -0.8169 7.1250 -0.0000 -0.0000 13.4211 -24.4991 6.8280
0.2472 17.4887 -0.0429 -1.0724 2.0544 7.3019 0.0000 0.0000 0.0000 -17.9418 -22.8935 0.2496 0.5871 4.9060 13.6407 0.2207 11.4039 -19.0318 0.7649 -5.5851 -15.5851 0.0000 0.0000 0.0000 0.0000 0.0000 0.0000 0.0000 0.0000 0.0000 -0.0000 -0.0000 0.0000 -0.0000 -0.0000 0.0000 0.1137 -0.8258 -0.6940 0.8243 -1.0825 -3.0936 0.8010 -0.5322 -2.7704 -18.9903 -15.6364 -12.7765 21.6024 -23.7994 20.0626 6.8572 -10.2297 14.2247 -0.0000 -0.0000 0.0000 -85.4980 8.5746 -5.1431 1.4929 -2.5837 -0.0337 -0.0000 -0.0000 27.6844 16.2878 31.5107 8.6828 -7.1250 0.0000 -0.0000 -18.4495 61.6027 -7.5986 -0.0000 -0.0000 0.0000 84.0188 -18.6001 -25.2790 -5.5658 9.5360 -0.4646 0.0000 0.0000 49.6547 -8.5972 5.9107 -0.8919 7.1250 -0.0000 -0.0000 13.3684 -24.0133 6.9546
0.2458 17.4889 -0.0428 -1.0304 1.9268 7.2990 0.0000 0.0000 0.0000 -18.0102 -22.7718 0.2363 0.5900 4.9179 13.6745 0.2347 11.3449 -19.1207 0.7279 -5.4514 -15.2006 0.0000 0.0000 0.0000 0.0000 0.0000 0.0000 0.0000 0.0000 0.0000 -0.0000 -0.0000 0.0000 -0.0000 -0.0000 0.0000 0.0371 -0.8417 -0.6850 0.7852 -1.1054 -3.1039 0.8045 -0.5422 -2.7851 -19.0045 -15.6496 -12.7958 21.4672 -23.8356 20.3227 6.8054 -10.2489 14.3241 -0.0000 0.0000 0.0000 -85.6614 8.3696 -5.3376 1.5577 -2.6958 -0.0367 -0.0000 -0.0000 27.2982 16.2930 31.6912 8.7296 -7.1250 0.0000 -0.0000 -18.5901 61.7742 -7.7344 -0.0000 0.0000 0.0000 84.1061 -18.4792 -25.1265 -5.8006 9.9292 -0.5043 0.0000 0.0000 49.4301 -8.5494 6.4761 -0.9714 7.1250 -0.0000 -0.0000 13.3518 -23.4579 7.1217
0.2446 17.4889 -0.0404 -1.0697 1.8520 7.2742 0.0000 0.0000 0.0000 -17.9816 -22.6896 0.2335 0.5932 4.9310 13.7117 0.2355 11.3325 -19.1150 0.7341 -5.4739 -15.2652 0.0000 0.0000 0.0000 0.0000 0.0000 0.0000 0.0000 0.0000 0.0000 -0.0000 -0.0000 0.0000 -0.0000 -0.0000 0.0000 0.0914 -0.8700 -0.6499 0.7394 -1.1433 -3.1508 0.7289 -0.5630 -2.8547 -19.0076 -15.6360 -12.6915 21.3643 -23.8559 20.5439 6.7758 -10.2691 14.3821 0.0000 -0.0000 0.0000 -85.7188 8.2722 -5.5137 1.6158 -2.7961 -0.0394 -0.0000 -0.0000 27.0153 16.0742 31.6688 8.6024 -7.1250 0.0000 -0.0000 -18.8109 61.6986 -7.7962 0.0000 -0.0000 0.0000 84.2390 -18.4118 -24.9708 -6.0630 10.3671 -0.5505 0.0000 0.0000 49.2036 -8.4898 7.0523 -1.0499 7.1250 -0.0000 -0.0000 13.3446 -22.8924 7.2963
0.2422 17.4882 -0.0367 -1.1699 1.7311 7.2274 0.0000 0.0000 0.0000 -17.9009 -22.5484 0.2401 0.5983 4.9517 13.7708 0.2474 11.2458 -19.1489 0.7083 -5.3790 -14.9928 0.0000 0.0000 0.0000 0.0000 0.0000 0.0000 0.0000 0.0000 0.0000 -0.0000 -0.0000 0.0000 -0.0000 -0.0000 0.0000 0.1742 -0.8712 -0.6019 0.7164 -1.1439 -3.2089 0.6605 -0.5656 -2.9438 -19.0493 -15.6295 -12.5604 21.2742 -23.8955 20.7961 6.7555 -10.3007 14.4616 -0.0000 -0.0000 0.0000 -85.7880 8.2019 -5.6581 1.7223 -2.9800 -0.0448 -0.0000 -0.0000 26.8875 15.5642 31.8144 8.3532 -7.1250 0.0000 -0.0000 -19.4860 61.7084 -8.0922 -0.0000 -0.0000 0.0000 84.3525 -18.2686 -24.8368 -6.2458 10.6714 -0.5839 0.0000 0.0000 49.0664 -8.5815 7.6133 -1.1454 7.1250 -0.0000 -0.0000 13.2322 -22.3384 7.4042
0.2409 17.4874 -0.0336 -1.2372 1.5913 7.1885 0.0000 0.0000 0.0000 -17.8647 -22.4000 0.2271 0.6063 4.9841 13.8631 0.2534 11.2612 -19.2347 0.7320 -5.4664 -15.2437 0.0000 0.0000 0.0000 0.0000 0.0000 0.0000 0.0000 0.0000 0.0000 -0.0000 -0.0000 0.0000 -0.0000 -0.0000 0.0000 0.2409 -0.8416 -0.5797 0.6692 -1.1044 -3.2605 0.5750 -0.5481 -3.0123 -19.0148 -15.6324 -12.3542 21.1432 -23.9354 20.9374 6.7049 -10.3390 14.4572 0.0000 -0.0000 0.0000 -85.8797 8.1372 -5.7296 1.9312 -3.3406 -0.0563 -0.0000 -0.0000 26.8141 14.7883 32.0438 7.9733 -7.1250 0.0000 -0.0000 -20.5200 61.7293 -8.5515 0.0000 -0.0000 0.0000 84.5530 -18.0451 -24.7991 -6.4193 10.9597 -0.6165 0.0000 0.0000 49.0495 -8.6825 8.1818 -1.2450 7.1250 -0.0000 -0.0000 13.1154 -21.7762 7.5083
0.2388 17.4874 -0.0339 -1.3529 1.4959 7.2037 0.0000 0.0000 0.0000 -17.7288 -22.3058 0.1567 0.6114 5.0046 13.9217 0.2638 11.1809 -19.2581 0.7227 -5.4323 -15.1459 0.0000 0.0000 0.0000 0.0000 0.0000 0.0000 0.0000 0.0000 0.0000 -0.0000 -0.0000 0.0000 -0.0000 -0.0000 0.0000 0.3684 -0.8552 -0.6342 0.6386 -1.1222 -3.2657 0.4716 -0.5610 -2.9898 -18.9750 -15.6300 -12.3377 21.0669 -23.9621 21.1040 6.6695 -10.3512 14.5114 0.0000 -0.0000 0.0000 -86.0137 7.9323 -5.9083 2.1321 -3.6870 -0.0686 -0.0000 -0.0000 26.7575 14.3758 31.8776 7.7086 -7.1250 0.0000 -0.0000 -20.8234 61.4734 -8.5576 0.0000 -0.0000 0.0000 84.7342 -17.6325 -24.6847 -6.6379 11.3218 -0.6587 0.0000 0.0000 48.9542 -8.5872 8.5275 -1.2828 7.1250 -0.0000 -0.0000 13.1573 -21.4387 7.6374
